<?xml version="1.0" encoding="UTF-8" standalone="no"?>
<!-- Created with Inkscape (http://www.inkscape.org/) -->

<svg
   xmlns:dc="http://purl.org/dc/elements/1.1/"
   xmlns:cc="http://creativecommons.org/ns#"
   xmlns:rdf="http://www.w3.org/1999/02/22-rdf-syntax-ns#"
   xmlns:svg="http://www.w3.org/2000/svg"
   xmlns="http://www.w3.org/2000/svg"
   xmlns:sodipodi="http://sodipodi.sourceforge.net/DTD/sodipodi-0.dtd"
   xmlns:inkscape="http://www.inkscape.org/namespaces/inkscape"
   width="210mm"
   height="297mm"
   viewBox="0 0 744.09448819 1052.3622047"
   id="svg2"
   version="1.1"
   inkscape:version="0.91 r13725"
   sodipodi:docname="katydid8.svg">
  <defs
     id="defs4" />
  <sodipodi:namedview
     id="base"
     pagecolor="#ffffff"
     bordercolor="#666666"
     borderopacity="1.0"
     inkscape:pageopacity="0.0"
     inkscape:pageshadow="2"
     inkscape:zoom="1.1678489"
     inkscape:cx="371.19097"
     inkscape:cy="824.1079"
     inkscape:document-units="px"
     inkscape:current-layer="layer1"
     showgrid="false"
     inkscape:window-width="2556"
     inkscape:window-height="1395"
     inkscape:window-x="1440"
     inkscape:window-y="0"
     inkscape:window-maximized="1" />
  <metadata
     id="metadata7">
    <rdf:RDF>
      <cc:Work
         rdf:about="">
        <dc:format>image/svg+xml</dc:format>
        <dc:type
           rdf:resource="http://purl.org/dc/dcmitype/StillImage" />
        <dc:title></dc:title>
      </cc:Work>
    </rdf:RDF>
  </metadata>
  <g
     inkscape:label="Layer 1"
     inkscape:groupmode="layer"
     id="layer1">
    <path
       style="fill:none;fill-rule:evenodd;stroke:#000000;stroke-width:1px;stroke-linecap:butt;stroke-linejoin:miter;stroke-opacity:1"
       d="m 152.85714,344.50506 50,25.71429 c 0,0 27.85715,10 37.14286,-16.42857 9.28571,-26.42858 23.57143,-70.71429 23.57143,-70.71429 0,0 1.42857,-30 20,-58.57143 18.57143,-28.57143 52.85714,-66.42857 52.85714,-66.42857 0,0 18.34566,-12.12683 51.42857,-9.28571 29.79751,2.55897 55.64827,14.66988 55.71429,15 0,0 24.09812,12.22611 42.01701,28.09172 15.02605,13.30425 24.01088,29.80377 27.2687,37.62256 7.14285,17.14286 -15,17.85714 -15,17.85714 0,0 -2.85714,2.14286 -4.28571,12.14286 -1.42857,10 -10.71429,15.71429 -10.71429,15.71429 0,0 11.42857,30.71428 1.42857,44.28571 -10,13.57143 -12.14285,30 -35,33.57143 -22.85714,3.57143 -125,22.85714 -125,22.85714 -18.08401,2.55224 -27.39714,7.29719 -59.15049,6.43209 8.14821,11.69818 17.59787,23.83017 9.15049,29.99648 -12.79116,4.26372 -57.34885,-21.1218 -67.85714,-30 -11.9788,-10.1206 -53.57143,-24.28571 -55.71429,-31.42857 -2.14285,-7.14286 2.14286,-6.42857 2.14286,-6.42857 z"
       id="path4182"
       inkscape:connector-curvature="0"
       sodipodi:nodetypes="ccscscscsscscsscccssc" />
    <path
       style="fill:none;fill-rule:evenodd;stroke:#000000;stroke-width:1px;stroke-linecap:butt;stroke-linejoin:miter;stroke-opacity:1"
       d="m 376.42857,370.21935 89.28572,-10.71429 c 19.23638,-0.71625 -0.22153,-10.44701 42.58224,10.59125 l 34.42959,31.68972 c 1.85327,4.50712 5.81586,12.60244 15.21608,13.33608 l 17.77208,2.2401 -0.71427,9.28571 -15.40241,0.37842 c -14.29967,4.58158 -32.49585,-18.17895 -32.49585,-18.17895 L 505.34842,391.65074 C 478.30291,366.62852 480.579,374.70677 461.42858,374.50506 l -117.14287,16.42857 c 3.90885,7.81919 8.43726,13.02412 12.74913,22.19175 1.81869,4.0184 2.32056,10.80118 1.53659,13.52254 -3.74877,7.70082 -13.26644,19.50676 9.28571,22.14285 L 380,453.79078 376.42857,462.3622 355,455.21935 c -10.47591,-1.33156 -16.13928,-5.41314 -13.30566,-14.35015 l 0.44852,-20.64985 c 6.482,-18.70397 -6.5044,-16.95561 -12.54803,-17.76583 l -13.16626,-0.8056 c 4.99541,6.05856 11.43272,11.70515 7.38796,20.34663 l -4.53082,6.08194 -20.73531,11.50036 c -20.75114,6.31621 -14.72259,16.54941 -14.438,26.35678 l -12.71973,0.50508 c 6.57547,-11.27171 -2.36726,-27.96804 19.76977,-33.75961 0,0 26.19515,-9.1426 10.66968,-23.98985 l -28.26069,-23.4699 z"
       id="path4184"
       inkscape:connector-curvature="0"
       sodipodi:nodetypes="ccccccccccccccccccccccccccccccc" />
    <rect
       style="opacity:1;fill:#51216c;fill-opacity:1;stroke:#000000;stroke-width:1.73343551;stroke-miterlimit:4;stroke-dasharray:none;stroke-opacity:1"
       id="rect4195"
       width="438.26657"
       height="438.26657"
       x="141.85689"
       y="33.649822"
       inkscape:export-xdpi="90"
       inkscape:export-ydpi="90" />
    <path
       style="fill:none;fill-rule:evenodd;stroke:#ffffff;stroke-width:10.06286335;stroke-linecap:butt;stroke-linejoin:miter;stroke-miterlimit:4;stroke-dasharray:none;stroke-opacity:1"
       d="m 138.94956,471.15097 c 76.09142,-34.79186 87.41958,-105.67725 239.89279,-77.10704 77.378,14.49898 130.77055,-34.81321 205.0158,-48.51416"
       id="path4409"
       inkscape:connector-curvature="0"
       sodipodi:nodetypes="csc" />
    <path
       style="opacity:1;fill:#4cd450;fill-opacity:1;stroke:#000000;stroke-width:0.5;stroke-miterlimit:4;stroke-dasharray:none;stroke-opacity:1"
       d="m 272.46939,236.00519 c -9.56506,29.25688 -28.25677,57.70125 -30.11197,61.4909 -5.54067,11.31808 -19.1243,16.58765 -33.26562,12.9043 -1.5413,-0.40146 -14.07304,-6.53778 -27.90625,-13.66406 -26.66778,-13.7381 -26.54883,-13.69178 -26.54883,-10.26953 0,4.46237 3.19508,6.98337 17.7793,14.02734 5.08306,2.45504 13.33373,6.43361 18.33398,8.8418 10.92687,5.26254 15.5956,7.95264 20.81445,11.98828 7.91564,6.12102 25.53494,16.30168 37.78125,21.83203 7.01464,3.16777 14.97273,6.01564 19.82813,7.0957 1.86919,0.4158 4.52012,0.67899 5.89258,0.58399 2.06635,-0.14304 2.74972,-0.45599 3.96875,-1.82032 1.37252,-1.53612 1.4573,-1.87458 1.26757,-4.99023 -0.25434,-4.17649 -2.27404,-8.34241 -8.28515,-17.0918 -2.33444,-3.39787 -4.24464,-6.2411 -4.24414,-6.3164 1.2e-4,-0.016 0.32746,-0.0324 0.73828,-0.0508 l 6.79687,5.64843 c 15.3446,12.75 17.02863,14.34029 18.5293,17.5 2.17676,4.58326 1.35116,8.22892 -2.81055,12.40039 -3.33526,3.3431 -6.88406,5.44397 -13.07617,7.7461 -11.05708,4.11084 -13.427,7.24932 -15.03711,19.90234 -0.44913,3.52942 -1.22402,7.73355 -1.7207,9.3418 l -0.90234,2.92383 5.13086,-0.33985 c 2.82164,-0.1872 5.2178,-0.41752 5.32617,-0.51172 0.10836,-0.0942 -0.0692,-2.53667 -0.39453,-5.42773 -0.86471,-7.68465 0.0591,-11.11308 3.93554,-14.61523 2.14944,-1.94188 5.36539,-3.73613 9.54492,-5.32422 1.38946,-0.52795 7.00668,-3.43363 12.48243,-6.45703 9.05846,-5.00157 10.15556,-5.75481 12.16797,-8.35743 2.75843,-3.56747 3.23046,-4.79942 3.23046,-8.43945 0,-2.41739 -0.29443,-3.38949 -1.76172,-5.82617 -0.96846,-1.6083 -2.92844,-4.27433 -4.35742,-5.92383 -1.42899,-1.6495 -2.45038,-3.14532 -2.26953,-3.32617 0.55856,-0.55856 19.78067,0.85661 22.4668,1.6543 5.28095,1.56827 7.35405,5.95377 5.83984,12.34765 -0.42761,1.80565 -0.96874,7.48781 -1.20312,12.62696 -0.23438,5.13915 -0.57686,11.61661 -0.76172,14.39453 -0.30102,4.52331 -0.23174,5.21794 0.67187,6.65234 1.40976,2.23788 4.85668,4.10411 9.22461,4.99609 2.04432,0.41747 8.22559,2.25459 13.73633,4.08204 5.51075,1.82745 10.18989,3.12626 10.39649,2.88671 0.20659,-0.23955 0.97777,-1.86272 1.71484,-3.60742 l 1.33984,-3.17187 -1.12695,-0.43555 c -0.62078,-0.23978 -3.43611,-1.36909 -6.25586,-2.50977 -2.81976,-1.14068 -5.69389,-2.07421 -6.38672,-2.07421 -2.74331,0 -8.04695,-2.0901 -10.05469,-3.96289 -3.52587,-3.28891 -3.42279,-7.01244 0.4043,-14.54883 l 2.34766,-4.6211 -0.20899,-4.77148 c -0.19341,-4.42224 -0.37643,-5.11621 -2.50586,-9.51953 -4.6795,-9.02253 -9.64977,-12.16199 -1.32283,-21.17283 10.35507,-9.72356 48.54415,2.72997 63.69226,1.30561 48.64811,-1.65334 53.80265,-33.36086 82.19112,-5.96091 3.77422,3.31403 11.61617,9.78575 17.42578,14.38281 5.80961,4.59708 11.6719,9.65245 13.0293,11.23438 3.24334,3.77984 10.54696,9.82661 14.54687,12.04297 5.87325,3.25438 7.38739,3.48141 18.84571,2.83008 5.55584,-0.31582 10.24946,-0.72225 10.42968,-0.90235 0.18022,-0.18011 0.41349,-1.93766 0.51758,-3.90625 l 0.18946,-3.58007 -10.24805,-1.30274 c -11.46584,-1.45903 -13.39576,-2.10474 -16.9668,-5.67578 -1.19294,-1.19294 -2.97529,-3.69731 -3.96094,-5.56445 -1.61115,-3.05201 -3.46893,-4.94697 -18.40234,-18.77539 l -16.61133,-15.38282 -12.13086,-5.98047 c -6.67205,-3.28978 -13.56534,-6.46413 -15.31836,-7.05468 -15.10782,-1.31124 1.82227,-12.17584 12.04493,-16.21854 19.82652,-13.85351 17.61739,-20.68835 1.06475,-37.9005 -13.80645,-18.64509 2.89168,-19.58916 15.46891,-29.33018 0.77927,-1.32972 -2.43893,-11.6387 -1.69528,-15.0163 -1.50149,-12.73667 20.66125,-15.19498 21.39599,-17.1673 0.23392,-7.00746 -11.44477,-23.99773 -21.5625,-34.96875 -7.27187,-7.88516 -33.02933,-25.70395 -33.02933,-25.70395 -13.7572,-8.23253 -24.32799,-6.66323 -24.32799,-6.66323 -82.73668,-0.26821 -139.78059,58.28259 -165.76118,130.53841 z"
       id="path4197"
       inkscape:connector-curvature="0"
       sodipodi:nodetypes="cssssssssssssscccssssccccssssssssssssssssccccssscccccccssssccccsscccccccccsccc" />
    <path
       style="fill:#51216c;fill-opacity:1;fill-rule:evenodd;stroke:#000000;stroke-width:0.35236555;stroke-linecap:butt;stroke-linejoin:miter;stroke-miterlimit:4;stroke-dasharray:none;stroke-opacity:1"
       d="m 376.9087,175.07395 c -4.85911,11.14663 -19.95283,10.03894 -22.83771,17.32109 -5.13583,12.96419 -12.64766,-4.48507 -9.61366,-14.53665 10.84075,-24.73688 45.72223,-36.24661 32.45136,-2.78442 z"
       id="path4432"
       inkscape:connector-curvature="0"
       sodipodi:nodetypes="cscc" />
  </g>
</svg>
