<svg width="18" height="18" viewBox="0 0 18 18" fill="none" xmlns="http://www.w3.org/2000/svg">
<path d="M9 0C4.032 0 0 4.01997 0 8.97314C0 13.9263 4.032 17.9463 9 17.9463C13.968 17.9463 18 13.9263 18 8.97314C18 4.01997 13.968 0 9 0ZM6.561 12.8226L3.33 9.60126C2.979 9.25131 2.979 8.686 3.33 8.33605C3.681 7.9861 4.248 7.9861 4.599 8.33605L7.2 10.9203L13.392 4.74679C13.743 4.39684 14.31 4.39684 14.661 4.74679C15.012 5.09675 15.012 5.66205 14.661 6.01201L7.83 12.8226C7.488 13.1726 6.912 13.1726 6.561 12.8226Z" fill="url(#paint0_linear_151_847)"/>
<defs>
<linearGradient id="paint0_linear_151_847" x1="3.16098" y1="3.3704" x2="15.8619" y2="13.869" gradientUnits="userSpaceOnUse">
<stop stop-color="#00898C"/>
<stop offset="0.35243" stop-color="#087F87"/>
<stop offset="0.717014" stop-color="#107582"/>
<stop offset="1" stop-color="#1D6578"/>
</linearGradient>
</defs>
</svg>
